<svg id="Layer_1" data-name="Layer 1" xmlns="http://www.w3.org/2000/svg" viewBox="0 0 322.74 187.18"><defs><style>.cls-1{stroke:#fff;stroke-miterlimit:10;}.cls-2{fill:#fff;}.cls-3{font-size:51.02px;fill:#1fcaff;font-family:Amboy-Black, Amboy ;font-weight:800;}</style></defs><path class="cls-1" d="M114.16,196.84l74.86-1,16.16,10,29.27.37a4.22,4.22,0,0,0,1.2,4.09,4.44,4.44,0,0,0,3.71,1q8.69.15,17.5.21,6.19,0,12.32,0a5.17,5.17,0,0,0,3.4-4.25c0-2.45.07-4.91.1-7.36,0-.41,0-3.54-2.26-5a4.5,4.5,0,0,0-1.38-.58L238.23,194a5.36,5.36,0,0,0-3.15,2.13,5.26,5.26,0,0,0-.88,3.5l-25.95-.31-19-12.32H113.66Z" transform="translate(-18.26 -24.91)"/><path class="cls-1" d="M118.7,208.19c-53.77,4.24-99.94-38.9-99.94-91.24S64.93,21.46,118.7,25.7Z" transform="translate(-18.26 -24.91)"/><path class="cls-2" d="M120.31,148a31.55,31.55,0,0,1,0-63.09" transform="translate(-18.26 -24.91)"/><path d="M118.7,126.2c-5.47,0-9.9-4.14-9.9-9.25s4.43-9.26,9.9-9.26" transform="translate(-18.26 -24.91)"/><path class="cls-2" d="M74.69,62.08A87.67,87.67,0,0,0,64.28,73,77.11,77.11,0,0,0,56,85.65a69.57,69.57,0,0,0-5.56,14l-.27.9-.2.92-.39,1.84a30.68,30.68,0,0,0-.67,3.69l-.47,3.73c-.08,1.25-.1,2.51-.15,3.76l-.08,1.88c0,.63.05,1.25.07,1.88.07,1.25.08,2.5.19,3.75L49,125.7a14.76,14.76,0,0,0,.32,1.86l.38,1.84a68.41,68.41,0,0,0,4.8,14.24,82.63,82.63,0,0,0,17.69,24.3,73.25,73.25,0,0,1-5.44-5.28c-.88-.91-1.68-1.89-2.53-2.83s-1.62-2-2.39-3a77.71,77.71,0,0,1-8-12.91,64.68,64.68,0,0,1-5-14.38l-.4-1.86a15.43,15.43,0,0,1-.33-1.88l-.51-3.79c-.12-1.26-.14-2.54-.22-3.81,0-.64-.07-1.27-.08-1.91l.07-1.91c.06-1.27.09-2.54.18-3.81l.5-3.79a29.83,29.83,0,0,1,.7-3.75l.41-1.86.21-.93.27-.92,1.12-3.65c.42-1.19.91-2.37,1.37-3.56s1-2.33,1.54-3.48,1.09-2.3,1.74-3.39A78.72,78.72,0,0,1,74.69,62.08Z" transform="translate(-18.26 -24.91)"/><path class="cls-2" d="M76.41,67.79a78,78,0,0,0-9.26,9.8A67.77,67.77,0,0,0,59.8,88.84a62.42,62.42,0,0,0-5,12.45l-.24.8-.17.82-.35,1.64a28.55,28.55,0,0,0-.6,3.3l-.42,3.32c-.06,1.12-.08,2.24-.13,3.35l-.07,1.68c0,.55,0,1.11.06,1.67.06,1.11.07,2.23.18,3.35l.42,3.32c.11,1.11.42,2.19.62,3.29a61.43,61.43,0,0,0,4.27,12.7,74,74,0,0,0,15.75,21.7,65.45,65.45,0,0,1-4.87-4.7c-.78-.81-1.5-1.68-2.26-2.52s-1.45-1.74-2.14-2.64a69.67,69.67,0,0,1-7.17-11.51A57.76,57.76,0,0,1,53.25,128c-.21-1.12-.53-2.21-.66-3.34l-.45-3.38c-.11-1.13-.13-2.27-.2-3.41,0-.57-.06-1.13-.07-1.7l.06-1.71a57.23,57.23,0,0,1,7.19-26A70.26,70.26,0,0,1,76.41,67.79Z" transform="translate(-18.26 -24.91)"/><path class="cls-2" d="M78.74,73.53a68.6,68.6,0,0,0-8,8.52,60.09,60.09,0,0,0-6.36,9.76,54.75,54.75,0,0,0-4.28,10.79c-.31.92-.43,1.89-.66,2.83a23,23,0,0,0-.51,2.85l-.36,2.88c-.06,1-.08,1.94-.12,2.9l-.06,1.45c0,.48,0,1,0,1.45.06,1,.06,1.94.15,2.9l.36,2.88c.1,1,.37,1.9.54,2.85a53.53,53.53,0,0,0,3.7,11,64.27,64.27,0,0,0,13.6,18.84,59.37,59.37,0,0,1-14.3-18.51,50.34,50.34,0,0,1-3.89-11.13c-.18-1-.46-1.92-.57-2.91L57.63,120c-.1-1-.11-2-.17-3,0-.49-.06-1-.07-1.48l0-1.48A49.61,49.61,0,0,1,63.7,91.45,60.56,60.56,0,0,1,78.74,73.53Z" transform="translate(-18.26 -24.91)"/><path class="cls-2" d="M80.54,80.28a56.22,56.22,0,0,0-6.66,7.14,49.44,49.44,0,0,0-5.29,8.15,46.15,46.15,0,0,0-3.56,9c-.26.76-.36,1.57-.55,2.35a21.33,21.33,0,0,0-.42,2.39l-.3,2.4c0,.8-.06,1.61-.1,2.41l0,1.21,0,1.21c0,.8.05,1.61.12,2.42l.3,2.4c.08.8.3,1.58.45,2.38a43.94,43.94,0,0,0,3.07,9.17,54,54,0,0,0,11.31,15.77,49.07,49.07,0,0,1-12-15.44,40.84,40.84,0,0,1-3.26-9.31c-.16-.81-.39-1.61-.48-2.43l-.33-2.45c-.09-.82-.1-1.65-.15-2.48l-.06-1.24.05-1.23a41.4,41.4,0,0,1,5.25-18.9A50,50,0,0,1,80.54,80.28Z" transform="translate(-18.26 -24.91)"/><path class="cls-2" d="M80.89,87.12a44.16,44.16,0,0,0-4.82,6,41.43,41.43,0,0,0-3.71,6.71,43.18,43.18,0,0,0-2.43,7.25c-.15.62-.24,1.25-.36,1.87l-.18.94-.1,1-.21,1.9,0,1.91,0,1,0,1c0,.63,0,1.27.08,1.9.14,1.27.24,2.54.5,3.79a40,40,0,0,0,2.1,7.35,42.2,42.2,0,0,0,3.44,6.85,44,44,0,0,0,4.59,6.2A39.43,39.43,0,0,1,71,129.91a34.68,34.68,0,0,1-2.28-7.47c-.28-1.28-.4-2.58-.56-3.88-.05-.65-.07-1.3-.1-2l0-1,0-1,.08-2,.23-2,.12-1,.19-1c.13-.64.24-1.29.39-1.92a38.14,38.14,0,0,1,2.62-7.36A39.93,39.93,0,0,1,80.89,87.12Z" transform="translate(-18.26 -24.91)"/><path class="cls-2" d="M71.83,56.34A96.41,96.41,0,0,0,60.29,68.45a84.67,84.67,0,0,0-9.15,14c-.69,1.21-1.27,2.47-1.84,3.74S48.1,88.65,47.64,90s-1,2.59-1.47,3.9l-1.2,4-.3,1-.21,1-.44,2a33.55,33.55,0,0,0-.74,4.1l-.53,4.13c-.08,1.38-.11,2.77-.17,4.16l-.08,2.07c0,.7,0,1.39.08,2.08.07,1.39.09,2.78.21,4.16l.53,4.13a17.91,17.91,0,0,0,.35,2l.43,2a75.21,75.21,0,0,0,5.32,15.76A90.84,90.84,0,0,0,69,173.45a80.91,80.91,0,0,1-6-5.85c-1-1-1.86-2.09-2.8-3.13s-1.79-2.16-2.64-3.28a85.88,85.88,0,0,1-8.85-14.28A71.93,71.93,0,0,1,43.21,131L42.77,129a16,16,0,0,1-.37-2.07l-.56-4.19c-.13-1.4-.16-2.81-.24-4.21,0-.71-.08-1.41-.09-2.11l.07-2.11c.07-1.41.11-2.82.2-4.22l.56-4.18a32.26,32.26,0,0,1,.77-4.15l.45-2.06.23-1,.31-1,1.23-4c.46-1.33,1-2.63,1.51-3.94a37.86,37.86,0,0,1,1.71-3.85A40.19,40.19,0,0,1,50.46,82,87.38,87.38,0,0,1,71.83,56.34Z" transform="translate(-18.26 -24.91)"/><rect x="105.15" y="51.78" width="67.52" height="49.51"/><rect x="105.15" y="100.82" width="217.59" height="56.86"/><text class="cls-3" transform="translate(107.56 98.62) scale(0.61 0.99)">Live<tspan x="0" y="52.53">Translations</tspan></text></svg>